Coordinates
version=1
nRows=8
nColumns=36
inDegrees=yes

Units are S.I. units (second, meters, Newtons, ...)
If the header above contains a line with 'inDegrees', this indicates whether rotational values are in degrees (yes) or radians (no).

endheader
time	pelvis_tilt	pelvis_list	pelvis_rotation	pelvis_tx	pelvis_ty	pelvis_tz	hip_flexion_r	hip_adduction_r	hip_rotation_r	knee_angle_r	knee_angle_r_beta	ankle_angle_r	subtalar_angle_r	mtp_angle_r	hip_flexion_l	hip_adduction_l	hip_rotation_l	knee_angle_l	knee_angle_l_beta	ankle_angle_l	subtalar_angle_l	mtp_angle_l	lumbar_extension	lumbar_bending	lumbar_rotation	arm_flex_r	arm_add_r	arm_rot_r	elbow_flex_r	pro_sup_r	arm_flex_l	arm_add_l	arm_rot_l	elbow_flex_l	pro_sup_l
      0.00000000	     -0.49674597	      1.35208169	     -0.64763752	     -0.14411538	      0.88579972	     -0.09200468	      4.86819767	     -6.13923458	     -4.09876340	      7.67926672	      0.13402849	      2.47945572	      3.17799606	     -7.45506240	      0.62874481	     -3.40475571	     -6.69620988	      6.45613883	      0.11268088	      6.34789341	      2.31283853	     -7.45506240	     -6.67578419	      2.83003047	     -1.87885459	     43.20716179	     11.91564084	     58.12022413	    144.00036094	    103.25552520	     48.24225719	     16.02849254	     60.95729554	    129.13818202	    100.97483135
      0.01666670	     -2.92172561	      0.90078420	     -0.90704127	     -0.14370632	      0.88241696	     -0.09386459	      7.54959565	     -5.64713380	     -2.99584825	      7.49422457	      0.13079889	      3.94640191	      4.50335664	     -7.46045782	      3.12970423	     -3.70955563	     -6.52300623	      6.12491275	      0.10689989	      6.14417582	      3.85697192	     -7.46045782	     -3.00485346	      3.36053784	     -3.10840518	     43.17948748	     13.36808002	     57.85280921	    146.08526712	    102.39980816	     50.26383577	     15.10659688	     59.41480562	    130.05249007	     99.18312811
      0.03333330	     -4.13441806	      1.13035580	     -1.19114640	     -0.14425834	      0.88208904	     -0.09357284	      8.61200917	     -5.72435200	     -3.35970045	      6.67755140	      0.11654526	      3.56344646	      4.56883590	     -7.46988128	      4.55721386	     -3.64926647	     -7.18254381	      6.01071889	      0.10490684	      5.51010223	      4.68014038	     -7.46988128	     -1.68382003	      2.91152847	     -2.65475096	     42.29576609	     13.59294219	     59.29823384	    146.65586703	    106.75181573	     50.40735782	     15.15009760	     58.95141431	    131.46241519	     98.39337948
      0.05000000	     -4.19277988	      1.38776207	     -1.19203753	     -0.14229725	      0.88347271	     -0.09412427	      8.31718204	     -5.92877881	     -3.55217438	      6.05428403	      0.10566719	      3.45106212	      4.91645380	     -7.47987655	      4.20001019	     -3.36748603	     -7.20930461	      5.21500062	      0.09101893	      5.41839188	      5.16836466	     -7.47987655	     -1.47287252	      2.29207827	     -2.54737032	     41.32539189	     13.52396314	     61.48627115	    146.71131331	     97.11973434	     50.75183742	     15.25738714	     59.69293639	    131.12277678	     90.67104486
      0.06666670	     -4.73138618	      1.54720035	     -1.15080262	     -0.13796281	      0.88251695	     -0.09397613	      8.46384490	     -5.99677796	     -3.80107240	      5.62555484	      0.09818445	      3.28844638	      5.03981319	     -7.48400827	      4.33811802	     -3.22786137	     -7.28397871	      4.62090363	      0.08064998	      5.35124135	      5.55716841	     -7.48400827	     -0.50218103	      2.08464226	     -2.35698974	     40.17495951	     13.89268969	     63.98475440	    146.70947748	    105.59182292	     50.14395657	     15.75493973	     61.13866764	    131.63852433	     93.09364599
      0.08333330	     -4.83735001	      1.66026207	     -0.97506880	     -0.13970789	      0.88021538	     -0.09488707	      8.37835529	     -6.08901977	     -4.02056911	      5.34152601	      0.09322722	      3.36799921	      5.07705684	     -7.49098727	      4.26009488	     -3.04669760	     -7.06804875	      4.29774487	      0.07500980	      5.61919539	      5.47097071	     -7.49098727	     -0.16151548	      1.78648824	     -1.99618248	     39.96912636	     13.59260100	     64.78511587	    145.94233584	    104.87429462	     50.01607422	     16.27874025	     62.31484003	    131.21992063	     90.07410388
      0.10000000	     -4.96288487	      1.70497916	     -0.87418748	     -0.13947376	      0.87860127	     -0.09508146	      8.38618791	     -6.12326239	     -3.78167096	      5.09585794	      0.08893950	      3.29263989	      4.64910796	     -7.49560245	      4.15599953	     -2.96007322	     -7.00363964	      3.91474936	      0.06832527	      5.91865954	      5.58258264	     -7.49560245	      0.20627551	      1.66085586	     -2.07916916	     39.88101221	     13.32131714	     65.74937373	    145.68043980	    104.07513294	     49.70949630	     16.45687876	     63.21457395	    130.97615323	     86.42031497
      0.11666670	     -5.02815248	      1.73273626	     -0.69115845	     -0.13951887	      0.87867040	     -0.09545366	      8.34896819	     -6.19429401	     -3.92257116	      4.93088334	      0.08606015	      3.30952771	      4.68962314	     -7.49735492	      3.99077130	     -2.85935662	     -6.87384835	      3.44957701	      0.06020648	      6.20669300	      5.83415741	     -7.49735492	      0.43384648	      1.48809889	     -2.46284096	     39.99689945	     12.98169720	     65.17806847	    145.40747918	    103.01624874	     49.81775232	     16.34727082	     62.86067785	    130.19680498	     82.96869659
